<svg width="49" height="49" viewBox="0 0 49 49" fill="none" xmlns="http://www.w3.org/2000/svg">
<path d="M0 0H39C44.5228 0 49 4.47715 49 10V49H10C4.47715 49 0 44.5228 0 39V0Z" fill="white"/>
<path d="M37 4.59961C41.0869 4.59961 44.4004 7.91309 44.4004 12V44.4004H12C7.91309 44.4004 4.59961 41.0869 4.59961 37V4.59961H37Z" stroke="#001D57" stroke-width="5.2"/>
<path d="M25.1172 27.3116C26.8733 30.1353 31.5562 35.3311 36.2392 33.5239L41.5075 32.3943" stroke="#001D57" stroke-width="2"/>
<path d="M25.7077 28.8902C26.3301 28.2713 21.3281 21.6014 18.2161 20.9825C15.1041 20.3637 13.2369 20.9825 11.3698 21.6014C9.50259 22.2203 6.39062 23.4581 6.39062 23.4581" stroke="#001D57" stroke-width="2"/>
<path d="M25.9375 23.6859C28.8512 22.069 34.2901 17.6336 32.7359 12.8264L31.8898 7.46623" stroke="#001D57" stroke-width="2"/>
<path d="M27.5451 23.1807C26.9604 22.5217 20.0324 27.1999 19.2479 30.2979C18.4634 33.3958 18.9816 35.3071 19.4997 37.2185C20.0178 39.1298 21.0874 42.3263 21.0874 42.3263" stroke="#001D57" stroke-width="2"/>
</svg>
